<mxfile host="app.diagrams.net" modified="2023-03-17T08:59:25.157Z" agent="5.0 (Windows NT 10.0; WOW64) AppleWebKit/537.36 (KHTML, like Gecko) Chrome/102.0.0.0 Safari/537.36" etag="z3udQHwwghA9vW4agu7v" version="21.0.6" type="github">
  <diagram name="第 1 页" id="z72zv4bo0Sn2J3To7vWs">
    <mxGraphModel dx="1036" dy="535" grid="1" gridSize="10" guides="1" tooltips="1" connect="1" arrows="1" fold="1" page="1" pageScale="1" pageWidth="827" pageHeight="1169" math="0" shadow="0">
      <root>
        <mxCell id="0" />
        <mxCell id="1" parent="0" />
        <mxCell id="h79wELTypKvTx1uz7p4--1" value="&lt;font style=&quot;font-size: 9px;&quot;&gt;开始&lt;/font&gt;" style="rounded=1;whiteSpace=wrap;html=1;shadow=0;labelBackgroundColor=none;strokeWidth=2;fontFamily=Verdana;fontSize=9;align=center;" vertex="1" parent="1">
          <mxGeometry x="368.5" y="153" width="103" height="56" as="geometry" />
        </mxCell>
        <mxCell id="h79wELTypKvTx1uz7p4--2" style="edgeStyle=orthogonalEdgeStyle;rounded=1;html=1;labelBackgroundColor=none;startArrow=none;startFill=0;startSize=5;endArrow=classicThin;endFill=1;endSize=5;jettySize=auto;orthogonalLoop=1;strokeWidth=2;fontFamily=Verdana;fontSize=8" edge="1" parent="1" source="h79wELTypKvTx1uz7p4--1" target="h79wELTypKvTx1uz7p4--4">
          <mxGeometry relative="1" as="geometry" />
        </mxCell>
        <mxCell id="h79wELTypKvTx1uz7p4--3" value="" style="edgeStyle=orthogonalEdgeStyle;rounded=0;orthogonalLoop=1;jettySize=auto;html=1;strokeWidth=2;" edge="1" parent="1" source="h79wELTypKvTx1uz7p4--4" target="h79wELTypKvTx1uz7p4--13">
          <mxGeometry relative="1" as="geometry" />
        </mxCell>
        <mxCell id="h79wELTypKvTx1uz7p4--4" value="&lt;font style=&quot;font-size: 11px;&quot;&gt;获取初始位形状态信息Q&lt;/font&gt;" style="rounded=1;whiteSpace=wrap;html=1;shadow=0;labelBackgroundColor=none;strokeWidth=2;fontFamily=Verdana;fontSize=8;align=center;" vertex="1" parent="1">
          <mxGeometry x="370" y="240" width="100" height="60" as="geometry" />
        </mxCell>
        <mxCell id="h79wELTypKvTx1uz7p4--5" value="dt=dt/N,计算N次" style="rounded=1;whiteSpace=wrap;html=1;shadow=0;labelBackgroundColor=none;strokeWidth=2;fontFamily=Verdana;fontSize=8;align=center;" vertex="1" parent="1">
          <mxGeometry x="580" y="437.5" width="100" height="60" as="geometry" />
        </mxCell>
        <mxCell id="h79wELTypKvTx1uz7p4--6" value="判断是否满足计算时长" style="rhombus;whiteSpace=wrap;html=1;rounded=0;shadow=0;labelBackgroundColor=none;strokeWidth=2;fontFamily=Verdana;fontSize=8;align=center;" vertex="1" parent="1">
          <mxGeometry x="350" y="550" width="140" height="100" as="geometry" />
        </mxCell>
        <mxCell id="h79wELTypKvTx1uz7p4--7" style="edgeStyle=orthogonalEdgeStyle;rounded=1;html=1;labelBackgroundColor=none;startArrow=none;startFill=0;startSize=5;endArrow=classicThin;endFill=1;endSize=5;jettySize=auto;orthogonalLoop=1;strokeWidth=2;fontFamily=Verdana;fontSize=8" edge="1" parent="1" source="h79wELTypKvTx1uz7p4--6" target="h79wELTypKvTx1uz7p4--11">
          <mxGeometry relative="1" as="geometry" />
        </mxCell>
        <mxCell id="h79wELTypKvTx1uz7p4--8" value="" style="edgeStyle=orthogonalEdgeStyle;rounded=0;orthogonalLoop=1;jettySize=auto;html=1;strokeWidth=2;" edge="1" parent="1" source="h79wELTypKvTx1uz7p4--10" target="h79wELTypKvTx1uz7p4--5">
          <mxGeometry relative="1" as="geometry" />
        </mxCell>
        <mxCell id="h79wELTypKvTx1uz7p4--9" value="" style="edgeStyle=orthogonalEdgeStyle;rounded=0;orthogonalLoop=1;jettySize=auto;html=1;strokeWidth=2;" edge="1" parent="1" source="h79wELTypKvTx1uz7p4--10" target="h79wELTypKvTx1uz7p4--6">
          <mxGeometry relative="1" as="geometry" />
        </mxCell>
        <mxCell id="h79wELTypKvTx1uz7p4--10" value="判断哑铃分子是否超长" style="rhombus;whiteSpace=wrap;html=1;rounded=0;shadow=0;labelBackgroundColor=none;strokeWidth=2;fontFamily=Verdana;fontSize=8;align=center;" vertex="1" parent="1">
          <mxGeometry x="345" y="420" width="150" height="95" as="geometry" />
        </mxCell>
        <mxCell id="h79wELTypKvTx1uz7p4--11" value="结束" style="rounded=1;whiteSpace=wrap;html=1;shadow=0;labelBackgroundColor=none;strokeWidth=2;fontFamily=Verdana;fontSize=8;align=center;" vertex="1" parent="1">
          <mxGeometry x="370" y="690" width="100" height="60" as="geometry" />
        </mxCell>
        <mxCell id="h79wELTypKvTx1uz7p4--12" value="" style="edgeStyle=orthogonalEdgeStyle;rounded=0;orthogonalLoop=1;jettySize=auto;html=1;strokeWidth=2;" edge="1" parent="1" source="h79wELTypKvTx1uz7p4--13" target="h79wELTypKvTx1uz7p4--10">
          <mxGeometry relative="1" as="geometry" />
        </mxCell>
        <mxCell id="h79wELTypKvTx1uz7p4--13" value="&lt;font style=&quot;font-size: 9px;&quot;&gt;计算Q(t+dt)&lt;/font&gt;" style="whiteSpace=wrap;html=1;fontSize=8;fontFamily=Verdana;rounded=1;shadow=0;labelBackgroundColor=none;strokeWidth=2;" vertex="1" parent="1">
          <mxGeometry x="335" y="340" width="170" height="60" as="geometry" />
        </mxCell>
        <mxCell id="h79wELTypKvTx1uz7p4--14" value="" style="endArrow=classic;html=1;rounded=0;exitX=0.59;exitY=-0.025;exitDx=0;exitDy=0;exitPerimeter=0;entryX=1;entryY=0.5;entryDx=0;entryDy=0;strokeWidth=2;" edge="1" parent="1" source="h79wELTypKvTx1uz7p4--5" target="h79wELTypKvTx1uz7p4--13">
          <mxGeometry width="50" height="50" relative="1" as="geometry">
            <mxPoint x="640" y="430" as="sourcePoint" />
            <mxPoint x="500" y="320" as="targetPoint" />
            <Array as="points">
              <mxPoint x="640" y="370" />
              <mxPoint x="580" y="370" />
            </Array>
          </mxGeometry>
        </mxCell>
        <mxCell id="h79wELTypKvTx1uz7p4--15" value="" style="endArrow=classic;html=1;rounded=0;entryX=0;entryY=0.5;entryDx=0;entryDy=0;exitX=0;exitY=0.5;exitDx=0;exitDy=0;strokeWidth=2;" edge="1" parent="1" source="h79wELTypKvTx1uz7p4--6" target="h79wELTypKvTx1uz7p4--13">
          <mxGeometry width="50" height="50" relative="1" as="geometry">
            <mxPoint x="240" y="600" as="sourcePoint" />
            <mxPoint x="430" y="260" as="targetPoint" />
            <Array as="points">
              <mxPoint x="240" y="600" />
              <mxPoint x="240" y="370" />
            </Array>
          </mxGeometry>
        </mxCell>
        <mxCell id="h79wELTypKvTx1uz7p4--16" value="&lt;b&gt;N&lt;/b&gt;" style="edgeLabel;html=1;align=center;verticalAlign=middle;resizable=0;points=[];" vertex="1" connectable="0" parent="h79wELTypKvTx1uz7p4--15">
          <mxGeometry x="-0.8147" y="-2" relative="1" as="geometry">
            <mxPoint x="4" y="-8" as="offset" />
          </mxGeometry>
        </mxCell>
        <mxCell id="h79wELTypKvTx1uz7p4--17" value="&lt;b&gt;Y&lt;/b&gt;" style="text;html=1;align=center;verticalAlign=middle;resizable=0;points=[];autosize=1;strokeColor=none;fillColor=none;" vertex="1" parent="1">
          <mxGeometry x="517" y="447" width="26" height="26" as="geometry" />
        </mxCell>
        <mxCell id="h79wELTypKvTx1uz7p4--18" value="&lt;b&gt;N&lt;/b&gt;" style="text;html=1;align=center;verticalAlign=middle;resizable=0;points=[];autosize=1;strokeColor=none;fillColor=none;" vertex="1" parent="1">
          <mxGeometry x="414" y="518" width="27" height="26" as="geometry" />
        </mxCell>
        <mxCell id="h79wELTypKvTx1uz7p4--19" value="&lt;b&gt;Y&lt;/b&gt;" style="text;html=1;align=center;verticalAlign=middle;resizable=0;points=[];autosize=1;strokeColor=none;fillColor=none;" vertex="1" parent="1">
          <mxGeometry x="414.5" y="655" width="26" height="26" as="geometry" />
        </mxCell>
      </root>
    </mxGraphModel>
  </diagram>
</mxfile>
